<svg width="110" height="110" viewBox="0 0 110 110" fill="none" xmlns="http://www.w3.org/2000/svg">
<path d="M110 55C110 85.3757 85.3757 110 55 110C24.6243 110 0 85.3757 0 55C0 24.6243 24.6243 0 55 0C85.3757 0 110 24.6243 110 55Z" fill="black"/>
<path d="M35.81 51.27V77.38C35.81 78.22 36.1133 78.8967 36.72 79.41C37.3267 79.9233 38.0967 80.2033 39.03 80.25L41.55 80.39C42.11 80.4367 42.39 80.7633 42.39 81.37C42.39 81.9767 42.04 82.28 41.34 82.28L33.22 82L26.57 82.28C25.87 82.28 25.52 81.9767 25.52 81.37C25.52 80.7633 25.8 80.4367 26.36 80.39L27.55 80.25C29.4167 80.0167 30.35 79.06 30.35 77.38V51.27C30.35 50.7567 30.07 50.5 29.51 50.5H25.24C24.68 50.5 24.4 50.1967 24.4 49.59V49.03C24.4 48.5633 24.68 48.2833 25.24 48.19L29.16 47.21C29.9533 47.0233 30.35 46.6033 30.35 45.95V45.67C30.35 40.1167 31.75 35.45 34.55 31.67C37.3967 27.89 41.2233 26 46.03 26C47.85 26 49.3433 26.2333 50.51 26.7C52.33 27.3533 53.24 28.1933 53.24 29.22V33.77C53.24 34.05 53.1233 34.33 52.89 34.61C52.7033 34.8433 52.47 34.96 52.19 34.96C51.5367 34.96 51.0467 34.5633 50.72 33.77C50.16 32.37 49.25 31.2967 47.99 30.55C46.7767 29.7567 45.4 29.36 43.86 29.36C41.2 29.36 39.1933 30.3867 37.84 32.44C36.4867 34.4933 35.81 37.41 35.81 41.19V46.23C35.81 46.7433 36.0433 47 36.51 47H45.61C46.2167 47 46.4733 47.28 46.38 47.84L46.1 49.59C46.0067 50.1967 45.7267 50.5 45.26 50.5H36.44C36.02 50.5 35.81 50.7567 35.81 51.27Z" fill="white"/>
<path d="M86.1958 42.24C86.2891 43.08 85.9391 43.5 85.1458 43.5C84.3991 43.5 83.9091 43.1267 83.6758 42.38C82.9758 40.14 81.9258 38.5533 80.5258 37.62C79.1258 36.6867 77.1891 36.22 74.7158 36.22H64.4258C63.3991 36.22 62.5591 36.5233 61.9058 37.13C61.2991 37.69 60.9958 38.4833 60.9958 39.51V54.91C60.9958 55.5167 61.2991 55.82 61.9058 55.82H74.2258C74.8325 55.82 75.3225 55.68 75.6958 55.4C76.1158 55.0733 76.3724 54.7467 76.4658 54.42C76.6058 54.0933 76.7924 53.58 77.0258 52.88L77.3058 51.97C77.4458 51.4567 77.7491 51.2 78.2158 51.2C78.8691 51.2 79.1958 51.5033 79.1958 52.11L78.9158 58.13L79.1958 63.94C79.1958 64.5933 78.8924 64.92 78.2858 64.92C77.7258 64.92 77.3991 64.64 77.3058 64.08L77.0958 62.82C76.9091 61.6067 76.6058 60.6967 76.1858 60.09C75.8125 59.4833 75.1591 59.18 74.2258 59.18H61.8358C61.2758 59.18 60.9958 59.5067 60.9958 60.16V77.38C60.9958 79.1067 62.0224 80.0633 64.0758 80.25L66.1758 80.39C66.7358 80.39 67.0158 80.67 67.0158 81.23C67.0158 81.93 66.6658 82.28 65.9658 82.28L57.9158 82L50.0058 82.28C49.3524 82.28 49.0258 81.9767 49.0258 81.37C49.0258 80.7167 49.2824 80.39 49.7958 80.39L51.8258 80.25C52.7591 80.1567 53.5291 79.8767 54.1358 79.41C54.7424 78.8967 55.0458 78.22 55.0458 77.38V37.62C55.0458 35.94 53.9724 35.0067 51.8258 34.82L49.7958 34.61C49.2824 34.61 49.0258 34.3067 49.0258 33.7C49.0258 33.0467 49.3524 32.72 50.0058 32.72L57.9158 33H82.0658C82.9524 33 83.6758 33.28 84.2358 33.84C84.7958 34.3533 85.1224 35.0067 85.2158 35.8L86.1958 42.24Z" fill="white"/>
</svg>
